<svg xmlns="http://www.w3.org/2000/svg" width="20" height="17" viewBox="0 0 20 17"><g><g><path fill="#fff" d="M17.96 4.593c0-.181-.007-.357-.015-.53A8.185 8.185 0 0 0 20 1.933a8.563 8.563 0 0 1-2.362.647A4.078 4.078 0 0 0 19.441.315a8.204 8.204 0 0 1-2.6.992A4.099 4.099 0 0 0 9.749 4.11c0 .326.028.638.095.936A11.608 11.608 0 0 1 1.392.756 4.135 4.135 0 0 0 .831 2.83c0 1.42.73 2.679 1.821 3.408A4.053 4.053 0 0 1 .8 5.732v.045a4.12 4.12 0 0 0 3.285 4.029c-.627.172-1.398.165-1.85.065.53 1.623 2.038 2.817 3.83 2.856a8.242 8.242 0 0 1-5.084 1.749c-.336 0-.659-.015-.981-.056a11.547 11.547 0 0 0 6.29 1.84c7.545 0 11.67-6.25 11.67-11.668z"/></g></g></svg>