<svg xmlns="http://www.w3.org/2000/svg" width="13" height="20" viewBox="0 0 13 20"><g><g><g><path fill="#fff" d="M6.246 2.495a2.911 2.911 0 1 1 0 5.822 2.911 2.911 0 0 1 0-5.822zm0 8.317A5.406 5.406 0 1 0 .84 5.406a5.413 5.413 0 0 0 5.406 5.406z"/></g><g><path fill="#fff" d="M11.543 13.37a2.094 2.094 0 0 0 .943-1.747 1.509 1.509 0 0 0-.846-1.376 1.58 1.58 0 0 0-1.664.156 6.328 6.328 0 0 1-7.456 0 1.589 1.589 0 0 0-1.663-.156 1.51 1.51 0 0 0-.847 1.375c.001.704.355 1.36.942 1.747a9.601 9.601 0 0 0 2.437 1.164c.147.046.298.088.454.127l-2.514 2.457a1.663 1.663 0 1 0 2.357 2.347l2.562-2.651 2.567 2.656a1.663 1.663 0 1 0 2.348-2.355l-2.509-2.455c.156-.04.308-.083.455-.127a9.565 9.565 0 0 0 2.434-1.162z"/></g></g></g></svg>