<svg xmlns="http://www.w3.org/2000/svg" width="20" height="12" viewBox="0 0 20 12"><g><g><path fill="#fff" d="M16.596 6.69c-.324-.408-.231-.59 0-.955.004-.004 2.673-3.692 2.948-4.943l.002-.001c.137-.456 0-.791-.661-.791h-2.187c-.556 0-.813.288-.95.61 0 0-1.114 2.664-2.689 4.392-.508.499-.743.659-1.02.659-.137 0-.35-.16-.35-.616V.791c0-.547-.156-.791-.616-.791H7.634c-.349 0-.556.255-.556.493 0 .518.787.637.869 2.095v3.165c0 .693-.126.82-.405.82-.744 0-2.548-2.675-3.617-5.738-.216-.594-.427-.834-.987-.834H.75C.126 0 0 .288 0 .61c0 .568.743 3.394 3.457 7.128 1.808 2.548 4.355 3.929 6.671 3.929 1.393 0 1.563-.307 1.563-.834 0-2.436-.126-2.666.572-2.666.323 0 .88.16 2.18 1.39 1.485 1.457 1.73 2.11 2.561 2.11h2.187c.623 0 .939-.307.757-.912-.415-1.273-3.225-3.89-3.352-4.065z"/></g></g></svg>